<?xml version="1.0" encoding="UTF-8"?>
<svg width="1200pt" height="1200pt" version="1.1" viewBox="0 0 1200 1200" xmlns="http://www.w3.org/2000/svg">
 <g>
  <path d="m764.8 124.1c-146.15 0-275.65 56.352-355.3 142.95 8.5-0.35156 17.051-0.5 25.75-0.5 131.05 0 250.3 42.301 336.95 110.55 89.699 70.648 145.15 169.05 145.15 278.45 0 56.75-14.898 110.55-41.801 159.05 38.352 54.949 126.25 102.1 247.75 57.949-67.25-28.898-101.2-37.398-101.05-123.15 109.75-62.801 181.15-164.7 181.15-279.75 0.054688-190.75-196.45-345.55-438.59-345.55z"/>
  <path d="m435.25 310.05c242.2 0 438.6 154.75 438.6 345.55 0 190.8-196.45 345.6-438.6 345.6-36.199 0-71.301-3.4492-104.9-9.9492-34.5 58.699-125.35 113.85-253.7 67.301 67.301-28.898 101.2-37.398 101.05-123.15-109.7-62.898-181.1-164.75-181.1-279.8-0.050781-190.86 196.4-345.55 438.65-345.55z"/>
 </g>
</svg>
